<svg width="147" height="146" fill="none" xmlns="http://www.w3.org/2000/svg"><path d="M99.572 39.174c.065 2.635 2.758 8.246 13.011 9.616 12.816 1.713 36.159 5.944 32.625-7.474-3.533-13.417-26.321-4.364-31.449 2.538-5.421 7.299-.629 14.02.499 16.98 1.901 3.13 7.015 9.577 12.257 10.324 6.552.934 12.784.396 11.459-4.032-.795-2.657-6.935-2.75-9.584-2.198-4.771.583-7.689 4.248-8.362 7.93-1.145 6.254 5.418 13.852 5.702 14.217 1.755 2.254 8.505 6.265 11.795 6.36 4.284.125 4.716-1.17 4.716-1.17" stroke="#BB9930" stroke-width=".89" stroke-linecap="round"/><circle cx="75.232" cy="80.567" r="15.134" fill="#BB9930" stroke="#BB9930" stroke-width=".89"/><circle cx="104.61" cy="82.348" r="10.683" fill="#BB9930" stroke="#BB9930" stroke-width=".89"/><circle cx="93.473" cy="56.086" r="12.909" fill="#BB9930" stroke="#BB9930" stroke-width=".89"/><circle cx="59.648" cy="55.196" r="10.238" fill="#BB9930" stroke="#BB9930" stroke-width=".89"/><circle cx="47.189" cy="79.232" r="9.348" fill="#BB9930" stroke="#BB9930" stroke-width=".89"/><path d="M66.98 32.996c-1.668 2.04-7.237 4.819-16.174-.39-11.17-6.513-32.198-17.496-21.175-25.922C40.655-1.742 53.093 19.39 52.906 27.986c-.198 9.09-8.106 11.456-10.813 13.101-3.422 1.305-11.416 3.257-16.013.63-5.747-3.282-10.337-7.532-6.574-10.215 2.259-1.61 7.163 2.084 8.917 4.146 3.409 3.388 3.464 8.072 1.736 11.393-2.934 5.64-12.778 7.612-13.226 7.726-2.77.703-10.56-.271-13.217-2.215C.257 50.022.71 48.734.71 48.734" stroke="#BB9930" stroke-width=".89" stroke-linecap="round"/><path d="M76.56 56.975c-3.04-4.879-7.316-17.078-4.327-31.851a52.973 52.973 0 012.72-9.1" stroke="#BB9930" stroke-width="2.671" stroke-linecap="round"/><path d="M72.117 27.213c2.65.93 5.648 1.117 10.683 0" stroke="#BB9930" stroke-width="1.78" stroke-linecap="round"/><circle cx="53.422" cy="100.597" r="9.348" fill="#BB9930" stroke="#BB9930" stroke-width=".89"/><circle cx="72.999" cy="105.938" r="7.567" fill="#BB9930" stroke="#BB9930" stroke-width=".89"/><circle cx="92.59" cy="103.268" r="9.348" fill="#BB9930" stroke="#BB9930" stroke-width=".89"/><circle cx="70.337" cy="121.964" r="6.677" fill="#BB9930" stroke="#BB9930" stroke-width=".89"/><circle cx="86.354" cy="120.182" r="6.677" fill="#BB9930" stroke="#BB9930" stroke-width=".89"/><circle cx="81.021" cy="133.535" r="4.896" fill="#BB9930" stroke="#BB9930" stroke-width=".89"/><circle cx="95.261" cy="132.646" r="4.896" fill="#BB9930" stroke="#BB9930" stroke-width=".89"/><circle cx="42.738" cy="62.318" r="4.896" fill="#BB9930" stroke="#BB9930" stroke-width=".89"/><circle cx="62.768" cy="112.614" r="2.671" fill="#BB9930" stroke="#BB9930" stroke-width=".89"/><circle cx="65.879" cy="40.059" r="3.116" fill="#BB9930" stroke="#BB9930" stroke-width=".89"/><circle cx="109.948" cy="66.321" r="2.671" fill="#BB9930" stroke="#BB9930" stroke-width=".89"/><circle cx="89.915" cy="140.66" r="3.116" fill="#BB9930" stroke="#BB9930" stroke-width=".89"/><circle cx="98.823" cy="118.403" r="3.116" fill="#BB9930" stroke="#BB9930" stroke-width=".89"/><path d="M105.345 14.518l-.445-.01h0v-.01l.001-.029.002-.114.007-.437c.004-.378.008-.918.005-1.568a90.135 90.135 0 00-.138-4.8c-.102-1.762-.275-3.525-.562-4.88-.143-.68-.31-1.235-.499-1.63-.2-.416-.374-.548-.468-.575-.167-.048-.481-.018-.98.185-.478.196-1.051.521-1.691.946-1.278.85-2.764 2.06-4.205 3.316a147.256 147.256 0 00-4.102 3.742c-.438.41-.817.765-1.112 1.035-.171.157-.318.288-.434.386a1.867 1.867 0 01-.317.232.492.492 0 01-.345.035.6.6 0 01-.176-.08 1.189 1.189 0 01-.199-.171 5.644 5.644 0 01-.384-.467c-.155-.203-.339-.457-.534-.726-.152-.21-.311-.43-.469-.642-.37-.502-.751-.99-1.094-1.35a3.184 3.184 0 00-.447-.405c-.12-.085-.174-.094-.174-.095h.003c-.636 0-1.542.406-2.51 1.319-.954.899-1.92 2.245-2.675 4.006-.459 1.07-.54 2.23-.581 3.216l-.01.23c-.015.394-.03.77-.072 1.069a2.06 2.06 0 01-.134.527.87.87 0 01-.4.447c-.28.14-1.172.626-2.074 1.2-.45.285-.896.588-1.266.877-.347.27-.597.505-.731.684l.002.004c.03.076.109.197.259.361.295.323.782.718 1.4 1.133 1.23.828 2.888 1.681 4.326 2.16.354.118.879.256 1.487.415l.048.013c.62.162 1.313.344 1.949.542.629.196 1.235.417 1.67.665.214.123.423.272.567.457.133.17.227.397.185.652a.57.57 0 01-.024.185.752.752 0 01-.122.23 2.089 2.089 0 01-.322.323c-.248.207-.61.464-1.031.757l-.247.171c-.82.57-1.86 1.293-2.907 2.157-2.333 1.924-4.558 4.432-4.569 7.33.068.032.18.071.35.11.447.104 1.102.165 1.822.206.419.024.833.04 1.23.056.294.011.58.023.85.036.308.016.59.035.82.06.115.014.223.03.318.05.089.017.195.045.288.092.19.096.295.267.352.383.062.127.108.273.144.412.041.154.083.353.124.545.027.128.053.253.079.361.072.311.15.561.247.728.07.122.12.149.15.155.55-.081 1.253-.235 2.073-.42l.474-.11c.712-.162 1.49-.34 2.296-.505 1.972-.404 4.162-.744 6.069-.608 1.26.09 2.63.712 3.986 1.522 1.339.8 2.719 1.82 4.029 2.788l.074.055c1.344.992 2.605 1.92 3.712 2.54.553.31 1.048.533 1.48.651.433.118.769.121 1.026.035.142-.047.275-.162.384-.417.113-.263.183-.642.198-1.137.03-.988-.158-2.309-.481-3.777-.646-2.929-1.806-6.328-2.679-8.566l-.151-.388.377-.176c2.562-1.2 6.336-3.227 9.33-5.404 1.5-1.09 2.781-2.203 3.619-3.252.854-1.07 1.163-1.964.962-2.667-.093-.327-.377-.698-.896-1.097-.51-.393-1.202-.78-2.028-1.152-1.651-.744-3.77-1.403-5.876-1.952a91.889 91.889 0 00-5.72-1.279 97.568 97.568 0 00-2.381-.427l-.135-.022-.035-.005-.008-.002h-.003l.069-.44zm0 0l-.445-.01-.009.39.385.06.069-.44zm-26.603 22.98h.001-.001z" fill="#BB9930" stroke="#BB9930" stroke-width=".89" stroke-linecap="round"/></svg>