<svg width="399" height="56" fill="none" xmlns="http://www.w3.org/2000/svg"><path d="M38.191 15.026c.025 1.01 1.058 3.163 4.99 3.688 4.917.657 13.87 2.28 12.515-2.867-1.356-5.146-10.096-1.673-12.063.974-2.08 2.8-.241 5.377.191 6.513.73 1.2 2.691 3.673 4.702 3.96 2.513.358 4.903.151 4.395-1.547-.305-1.02-2.66-1.055-3.676-.843-1.83.224-2.95 1.63-3.208 3.042-.439 2.398 2.079 5.313 2.188 5.453.673.864 3.261 2.403 4.524 2.44 1.643.047 1.809-.45 1.809-.45" stroke="#BB9930" stroke-width=".341" stroke-linecap="round"/><circle cx="28.855" cy="30.902" r="5.805" fill="#BB9930" stroke="#BB9930" stroke-width=".341"/><circle cx="40.124" cy="31.585" r="4.098" fill="#BB9930" stroke="#BB9930" stroke-width=".341"/><circle cx="35.852" cy="21.512" r="4.951" fill="#BB9930" stroke="#BB9930" stroke-width=".341"/><circle cx="22.879" cy="21.171" r="3.927" fill="#BB9930" stroke="#BB9930" stroke-width=".341"/><circle cx="18.1" cy="30.39" r="3.585" fill="#BB9930" stroke="#BB9930" stroke-width=".341"/><path d="M25.69 12.656c-.64.783-2.775 1.848-6.203-.15-4.285-2.498-12.35-6.71-8.122-9.942s8.999 4.873 8.927 8.17c-.076 3.487-3.11 4.394-4.147 5.025-1.313.5-4.379 1.25-6.142.242-2.205-1.259-3.965-2.889-2.522-3.918.867-.618 2.748.8 3.42 1.59 1.308 1.3 1.329 3.096.666 4.37-1.125 2.163-4.9 2.92-5.073 2.963-1.062.27-4.05-.104-5.07-.85-1.326-.97-1.152-1.463-1.152-1.463" stroke="#BB9930" stroke-width=".341" stroke-linecap="round"/><path d="M29.365 21.853c-1.166-1.87-2.806-6.55-1.66-12.216l.052-.25c.227-1.051.55-2.136.991-3.241" stroke="#BB9930" stroke-width="1.024" stroke-linecap="round"/><path d="M27.66 10.438c1.017.357 2.166.428 4.098 0" stroke="#BB9930" stroke-width=".683" stroke-linecap="round"/><circle cx="20.491" cy="38.585" r="3.585" fill="#BB9930" stroke="#BB9930" stroke-width=".341"/><circle cx="27.999" cy="40.634" r="2.902" fill="#BB9930" stroke="#BB9930" stroke-width=".341"/><circle cx="35.514" cy="39.61" r="3.585" fill="#BB9930" stroke="#BB9930" stroke-width=".341"/><circle cx="26.978" cy="46.781" r="2.561" fill="#BB9930" stroke="#BB9930" stroke-width=".341"/><circle cx="33.122" cy="46.097" r="2.561" fill="#BB9930" stroke="#BB9930" stroke-width=".341"/><circle cx="31.076" cy="51.219" r="1.878" fill="#BB9930" stroke="#BB9930" stroke-width=".341"/><circle cx="36.537" cy="50.878" r="1.878" fill="#BB9930" stroke="#BB9930" stroke-width=".341"/><circle cx="16.392" cy="23.902" r="1.878" fill="#BB9930" stroke="#BB9930" stroke-width=".341"/><circle cx="24.074" cy="43.195" r="1.024" fill="#BB9930" stroke="#BB9930" stroke-width=".341"/><circle cx="25.268" cy="15.365" r="1.195" fill="#BB9930" stroke="#BB9930" stroke-width=".341"/><circle cx="42.172" cy="25.438" r="1.024" fill="#BB9930" stroke="#BB9930" stroke-width=".341"/><circle cx="34.487" cy="53.951" r="1.195" fill="#BB9930" stroke="#BB9930" stroke-width=".341"/><circle cx="37.905" cy="45.415" r="1.195" fill="#BB9930" stroke="#BB9930" stroke-width=".341"/><path d="M40.406 5.569l-.17-.004h0v-.059l.003-.168a38.215 38.215 0 00-.05-2.442c-.04-.676-.107-1.352-.216-1.872a2.885 2.885 0 00-.192-.625c-.077-.16-.143-.21-.18-.22-.064-.019-.184-.008-.375.07-.184.076-.404.2-.649.363-.49.326-1.06.79-1.613 1.272a56.613 56.613 0 00-1.573 1.435c-.169.158-.314.294-.427.397-.065.06-.122.11-.166.149a.716.716 0 01-.122.089.188.188 0 01-.132.013.23.23 0 01-.068-.03.455.455 0 01-.076-.067 2.134 2.134 0 01-.147-.179c-.06-.078-.13-.175-.205-.278l-.18-.246a5.822 5.822 0 00-.42-.518 1.216 1.216 0 00-.171-.155c-.046-.033-.067-.036-.067-.037h.001c-.244 0-.591.156-.962.506-.367.345-.737.86-1.026 1.537-.176.41-.208.855-.223 1.233l-.004.089c-.006.15-.011.294-.027.41a.785.785 0 01-.052.201.333.333 0 01-.154.172c-.107.054-.449.24-.795.46-.173.11-.344.226-.486.337a1.6 1.6 0 00-.28.262v.002a.53.53 0 00.1.138c.113.124.3.275.537.435a7.416 7.416 0 001.66.828c.135.045.336.098.57.16l.018.004c.238.062.504.132.748.208.24.075.473.16.64.255a.738.738 0 01.218.175.32.32 0 01.07.25.218.218 0 01-.009.072.29.29 0 01-.046.088.793.793 0 01-.124.123c-.095.08-.234.179-.395.29l-.095.067c-.315.218-.713.495-1.115.827-.895.738-1.748 1.7-1.752 2.811a.685.685 0 00.134.043c.171.04.422.063.699.079.16.009.319.015.471.021l.326.014c.118.006.227.013.315.023.044.005.086.011.122.019a.46.46 0 01.11.035.311.311 0 01.135.147.874.874 0 01.056.158c.015.06.032.136.047.21l.03.138c.028.12.058.215.095.279.027.047.046.057.058.06.21-.032.48-.09.795-.162l.182-.042c.273-.062.571-.13.88-.193.757-.156 1.596-.286 2.328-.234.483.035 1.009.273 1.53.584.513.307 1.042.698 1.545 1.07l.028.02c.515.38.999.737 1.424.975.212.119.401.204.567.25.166.045.295.046.394.013.054-.018.105-.062.147-.16.043-.101.07-.246.076-.436.012-.38-.06-.886-.185-1.449-.247-1.123-.692-2.427-1.027-3.285l-.058-.15.145-.067c.983-.46 2.43-1.237 3.578-2.073.575-.418 1.067-.845 1.389-1.247.327-.41.445-.753.368-1.023-.035-.125-.144-.267-.343-.42a3.98 3.98 0 00-.778-.442c-.633-.286-1.446-.539-2.254-.75a35.302 35.302 0 00-3.107-.653l-.052-.009-.013-.002h-.004 0l.026-.17zm0 0l-.17-.004-.004.15.147.022.027-.168z" fill="#BB9930" stroke="#BB9930" stroke-width=".341" stroke-linecap="round"/><path d="M90.627 3.685v.147c-.751 0-1.404.245-1.959.735-.555.457-.832 1.06-.832 1.811v35.888h-.686L69.525 6.427v33.195c0 .75.277 1.37.832 1.86.555.457 1.208.686 1.959.686v.098H66v-.098c.75 0 1.403-.229 1.958-.686.555-.49.833-1.11.833-1.86V6.525c0-.783-.278-1.42-.833-1.91-.522-.522-1.175-.783-1.958-.783v-.147h4.26l16.89 34.37V6.33c0-.75-.293-1.354-.88-1.811-.556-.457-1.208-.686-1.96-.686v-.147h6.317zm15.026 0c1.796 0 3.477.506 5.043 1.518 1.6 1.012 2.987 2.4 4.162 4.162 1.175 1.73 2.089 3.77 2.742 6.12.685 2.35 1.028 4.847 1.028 7.49 0 2.677-.343 5.19-1.028 7.54-.653 2.318-1.567 4.358-2.742 6.12-1.175 1.73-2.562 3.101-4.162 4.113-1.566 1.012-3.247 1.518-5.043 1.518-1.795 0-3.476-.506-5.042-1.518-1.567-1.012-2.938-2.383-4.113-4.113-1.175-1.762-2.105-3.802-2.79-6.12-.686-2.35-1.029-4.863-1.029-7.54 0-2.643.343-5.14 1.028-7.49.686-2.35 1.616-4.39 2.791-6.12 1.175-1.763 2.546-3.15 4.113-4.162 1.566-1.012 3.247-1.518 5.042-1.518zm0 37.895c1.502 0 2.889-.49 4.162-1.469 1.306-.979 2.415-2.3 3.329-3.965.947-1.698 1.681-3.672 2.203-5.925.555-2.252.833-4.667.833-7.245 0-2.579-.278-4.994-.833-7.246-.522-2.253-1.256-4.211-2.203-5.876-.914-1.697-2.023-3.035-3.329-4.014-1.273-.98-2.66-1.47-4.162-1.47-1.501 0-2.888.49-4.161 1.47-1.273.979-2.383 2.317-3.33 4.014-.946 1.665-1.697 3.623-2.252 5.876-.522 2.252-.783 4.667-.783 7.245 0 2.58.261 4.994.784 7.246.554 2.253 1.305 4.227 2.252 5.925.946 1.664 2.056 2.986 3.329 3.965 1.273.98 2.66 1.47 4.161 1.47zm17.835-2.105V6.525c0-.783-.278-1.436-.833-1.958-.522-.523-1.175-.784-1.958-.784v-.098h11.799c1.371 0 2.66.262 3.868.784a9.344 9.344 0 013.134 2.056 8.935 8.935 0 012.056 3.036c.522 1.142.783 2.382.783 3.72-.032 2.057-.62 3.901-1.762 5.533-1.11 1.6-2.579 2.758-4.407 3.476 1.208.13 2.334.49 3.379 1.077a10.282 10.282 0 012.79 2.203 9.505 9.505 0 011.812 3.036 9.663 9.663 0 01.685 3.623c0 1.37-.261 2.676-.783 3.917a10.602 10.602 0 01-2.105 3.182 9.596 9.596 0 01-3.134 2.154c-1.175.523-2.448.784-3.819.784h-14.296v-.098c.783 0 1.436-.261 1.958-.784.555-.522.833-1.158.833-1.91zm2.154.49c0 .456.147.848.441 1.174.326.294.718.441 1.175.441h6.071a8.3 8.3 0 003.476-.734 8.998 8.998 0 002.888-2.008 9.177 9.177 0 001.91-2.986 9.111 9.111 0 00.734-3.623 9.11 9.11 0 00-.734-3.623c-.49-1.143-1.143-2.122-1.959-2.938a9 9 0 00-2.888-2.007c-1.077-.49-2.252-.734-3.525-.734a7.58 7.58 0 00-.833.049 6.32 6.32 0 00-.832.146c-.326.066-.653.147-.979.245l-.049-.147c.261-.098.506-.195.734-.293.229-.066.474-.131.735-.196a9.73 9.73 0 01.734-.245 9.253 9.253 0 002.84-1.273 9.242 9.242 0 002.252-2.105 9.536 9.536 0 001.518-2.693 8.89 8.89 0 00.538-3.084 9.14 9.14 0 00-.636-3.379 8.619 8.619 0 00-1.812-2.84 8.35 8.35 0 00-2.644-2.007 7.428 7.428 0 00-3.28-.734h-4.259a1.6 1.6 0 00-1.175.49c-.294.293-.441.669-.441 1.126v33.978zm28.992-36.28v.098c-.784 0-1.453.261-2.008.784a2.599 2.599 0 00-.783 1.91v33.488c0 .456.147.848.441 1.174.326.294.718.441 1.175.441h9.4a3.964 3.964 0 002.301-.832c.718-.522 1.142-1.191 1.273-2.008h.147l-.49 4.211h-.098c0-.163-.081-.326-.244-.49a.61.61 0 00-.441-.195h-18.409v-.147c.783 0 1.436-.245 1.958-.735.555-.522.833-1.175.833-1.958v-32.9c0-.784-.278-1.437-.833-1.96-.522-.522-1.175-.783-1.958-.783v-.098h7.736zm32.331 0a.663.663 0 00.489-.195c.131-.164.196-.327.196-.49h.098l.49 4.162-.147.049c-.131-.85-.555-1.535-1.273-2.057a3.706 3.706 0 00-2.301-.783h-9.45c-.456 0-.832.163-1.126.49-.261.293-.391.669-.391 1.126v16.646h8.568c.75 0 1.354-.278 1.811-.832a3.182 3.182 0 00.686-2.008h.146v6.316h-.146c0-.75-.229-1.404-.686-1.958-.457-.555-1.061-.833-1.811-.833h-8.568v16.646c0 .458.147.85.44 1.175.327.294.718.441 1.175.441h11.163c.849 0 1.632-.26 2.35-.783.751-.522 1.159-1.208 1.224-2.056l.147.048L189.56 43h-.098a.846.846 0 00-.196-.539.666.666 0 00-.49-.195h-20.171v-.147c.783 0 1.436-.261 1.958-.784.555-.522.832-1.158.832-1.91v-32.9c0-.816-.277-1.469-.832-1.958-.522-.523-1.175-.784-1.958-.784v-.098h18.36zm51.484.048v.147c-.866 0-1.619.245-2.259.734-.64.456-.96 1.06-.96 1.809v35.843h-.79L214.114 6.473v33.154c0 .75.32 1.37.96 1.858.64.456 1.393.685 2.258.685v.098h-7.283v-.098c.866 0 1.618-.228 2.258-.685.64-.489.96-1.108.96-1.858V6.57c0-.783-.32-1.418-.96-1.907-.602-.522-1.355-.783-2.258-.783v-.147h4.912l19.479 34.328V6.374c0-.75-.339-1.353-1.016-1.81-.64-.456-1.393-.684-2.259-.684v-.147h7.284zm23.539 0a.833.833 0 00.565-.195c.15-.163.226-.326.226-.49h.113l.564 4.157-.169.05c-.151-.848-.64-1.533-1.468-2.055a4.714 4.714 0 00-2.654-.782h-10.897c-.527 0-.96.163-1.298.49-.301.292-.452.667-.452 1.124v16.626h9.881c.865 0 1.562-.277 2.089-.832.527-.586.79-1.255.79-2.005h.17v6.309h-.17c0-.75-.263-1.402-.79-1.956-.527-.555-1.224-.832-2.089-.832h-9.881v16.626c0 .457.169.848.508 1.174.377.293.828.44 1.355.44h12.873c.979 0 1.882-.26 2.71-.782.866-.522 1.337-1.207 1.412-2.054l.169.049-.564 4.205h-.113a.78.78 0 00-.226-.538.833.833 0 00-.565-.196h-23.261v-.146c.903 0 1.656-.261 2.258-.783.64-.521.96-1.157.96-1.907V6.57c0-.815-.32-1.467-.96-1.956-.602-.522-1.355-.783-2.258-.783v-.098h21.172zM265.572 23c0-2.673.49-5.167 1.468-7.482.979-2.347 2.315-4.384 4.009-6.112a18.809 18.809 0 015.928-4.157c2.259-1.01 4.668-1.515 7.227-1.515h3.84c.301 0 .527-.066.677-.196a.775.775 0 00.226-.538h.169l4.348 4.205-.113.05a9.287 9.287 0 00-2.089-1.468 9.572 9.572 0 00-1.976-.88 10.216 10.216 0 00-1.807-.391 13.043 13.043 0 00-1.468-.098h-.734c-2.371 0-4.592.49-6.662 1.467a16.54 16.54 0 00-5.364 4.01c-1.506 1.662-2.691 3.618-3.557 5.868-.866 2.25-1.299 4.662-1.299 7.237s.433 4.988 1.299 7.237c.866 2.25 2.051 4.222 3.557 5.917a16.875 16.875 0 005.364 3.96c2.07.979 4.291 1.468 6.662 1.468 1.731 0 3.388-.26 4.969-.782a16.927 16.927 0 004.403-2.201l.057.147a18.385 18.385 0 01-4.969 2.591c-1.769.62-3.67.93-5.702.93-2.522 0-4.912-.506-7.171-1.516-2.258-1.011-4.215-2.38-5.872-4.108-1.656-1.76-2.973-3.798-3.952-6.112-.978-2.348-1.468-4.858-1.468-7.531zm30.283-20h.169c0 .456.263.685.79.685h25.408c.527 0 .79-.229.79-.685h.113l.565 4.205-.17.05c-.226-.816-.715-1.484-1.468-2.006-.752-.554-1.637-.83-2.653-.83h-6.776a2 2 0 00-1.355.488 1.424 1.424 0 00-.508 1.125V39.43c0 .75.32 1.386.96 1.907.64.522 1.393.783 2.258.783v.147h-8.92v-.147a3.34 3.34 0 002.258-.831c.678-.555 1.016-1.174 1.016-1.859V6.032c0-.457-.188-.832-.564-1.125-.339-.326-.772-.489-1.299-.489h-6.832c-1.016 0-1.9.277-2.653.831-.753.522-1.242 1.19-1.468 2.005l-.17-.049.509-4.205zm20.554 39.169c1.016 0 1.882-.245 2.597-.734.753-.489 1.242-1.157 1.468-2.005l9.373-30.709a3.93 3.93 0 00-.057-2.543 42.084 42.084 0 01-.79-2.445h3.161c-.112.36-.207.685-.282.978-.075.261-.056.571.057.93l10.445 34.18c.037.066.113.229.226.49.15.26.376.537.677.83.301.262.697.506 1.186.734.527.196 1.148.294 1.863.294v.098h-8.074v-.098c.452-.033.828-.13 1.129-.294.264-.13.471-.31.621-.538.189-.26.207-.619.057-1.075l-5.025-16.48h-8.921l-5.025 16.333c-.15.456-.15.831 0 1.125.188.26.414.472.678.635.301.163.677.261 1.129.294v.098h-6.493v-.098zm9.881-19.071h8.525l-4.234-14.132-4.291 14.132zM348.719 3.88v-.147h7.51c1.543 0 2.973.245 4.291.734 1.355.456 2.54 1.092 3.557 1.907 1.016.815 1.806 1.76 2.371 2.836a6.904 6.904 0 01.903 3.423 7.15 7.15 0 01-.677 3.032 8.173 8.173 0 01-1.92 2.543c-.79.75-1.75 1.402-2.879 1.956a13.848 13.848 0 01-3.557 1.124c1.28.326 2.578.864 3.896 1.614 1.355.717 2.578 1.777 3.669 3.179 1.13 1.402 2.052 3.195 2.767 5.379.753 2.151 1.129 4.808 1.129 7.97v.05c-.037.749.264 1.385.904 1.906a3.693 3.693 0 002.315.783v.098h-4.461c-.339 0-.64-.098-.903-.294a1.082 1.082 0 01-.339-.782v-4.646c0-.847-.075-1.81-.226-2.885a17.888 17.888 0 00-.79-3.276 13.976 13.976 0 00-1.468-3.227 10.549 10.549 0 00-2.315-2.837c-.941-.847-2.089-1.516-3.444-2.005-1.318-.521-2.861-.782-4.63-.782v18.044c0 .75.32 1.37.96 1.858.64.49 1.392.734 2.258.734v.098h-8.921v-.098c.866 0 1.619-.245 2.259-.734.64-.489.96-1.092.96-1.81V6.57c0-.783-.32-1.418-.96-1.907-.602-.522-1.355-.783-2.259-.783zm5.703 16.92c1.506.065 2.898-.066 4.178-.392 1.28-.358 2.39-.896 3.331-1.613a7.58 7.58 0 002.202-2.641c.527-1.043.791-2.217.791-3.52 0-1.142-.207-2.201-.621-3.18a6.812 6.812 0 00-1.694-2.59c-.753-.75-1.675-1.338-2.767-1.761-1.091-.457-2.315-.685-3.67-.685-.489 0-.903.147-1.242.44-.339.294-.508.636-.508 1.027V20.8zm19.939 17.848c1.43 1.206 2.804 1.988 4.122 2.347 1.317.359 2.409.538 3.274.538h3.953c1.355 0 2.616-.245 3.782-.733 1.205-.522 2.24-1.207 3.106-2.054a8.957 8.957 0 002.089-2.934 8.971 8.971 0 00.734-3.57 8.208 8.208 0 00-.791-3.57 8.754 8.754 0 00-2.202-2.885 10.696 10.696 0 00-3.274-2.005c-1.242-.489-2.579-.75-4.009-.782-1.619-.033-3.105-.31-4.46-.831-1.318-.522-2.466-1.223-3.445-2.103a9.677 9.677 0 01-2.202-3.032 8.873 8.873 0 01-.79-3.667c0-1.337.301-2.592.903-3.766a9.657 9.657 0 012.428-3.031c1.017-.88 2.202-1.565 3.557-2.054 1.393-.522 2.88-.783 4.461-.783h4.404c.301 0 .527-.065.677-.195a.775.775 0 00.226-.538h.169l4.348 4.205-.057.098c-1.43-1.206-2.804-1.988-4.121-2.347-1.318-.359-2.409-.538-3.275-.538h-1.412c-1.731 0-3.199.245-4.403.734-1.205.489-2.184 1.14-2.936 1.956a7.405 7.405 0 00-1.638 2.836 12.465 12.465 0 00-.451 3.374c0 1.01.188 2.054.564 3.13.414 1.075.96 2.037 1.637 2.884a8.803 8.803 0 002.428 2.103 6.008 6.008 0 003.106.832h2.089c1.581 0 3.049.26 4.404.782 1.392.521 2.597 1.239 3.613 2.152a9.857 9.857 0 012.428 3.178 8.638 8.638 0 01.903 3.912 8.84 8.84 0 01-.903 3.912 9.862 9.862 0 01-2.371 3.178 12.121 12.121 0 01-3.501 2.103c-1.317.522-2.71.782-4.178.782h-7.792c-.263 0-.47.066-.621.196a.853.853 0 00-.169.49h-.113l-4.404-4.206.113-.098z" fill="#BB9930"/></svg>